ffmpeg started on 2026-01-04 at 17:17:14
Report written to "D:\Convert\FFMetrics\reports\ssim_report-2.txt"
Log level: 32
Command line:
ffmpeg -hide_banner -nostdin -r 24000/1001 -i "F:\\Convert\\files\\[DC] Make Heroine ga Oosugiru - 07_Telegram_HEVC(54).mkv" -i "F:\\Convert\\files\\[DC] Make Heroine ga Oosugiru - 07_Telegram.mp4" -lavfi "[0:v]fps=24000/1001[main];[1:v]fps=24000/1001[ref];[main][ref]ssim=stats_file='D\\:/Convert/FFMetrics/logs/ssim_logfile-2.txt'" -f null -
Input #0, matroska,webm, from 'F:\Convert\files\[DC] Make Heroine ga Oosugiru - 07_Telegram_HEVC(54).mkv':
  Metadata:
    COMPATIBLE_BRANDS: isomiso2avc1mp41
    MAJOR_BRAND     : isom
    MINOR_VERSION   : 512
    ENCODER         : Lavf61.7.100
  Duration: 00:24:06.79, start: -0.021000, bitrate: 981 kb/s
  Stream #0:0: Video: hevc (Main 10), yuv420p10le(tv, bt709, progressive), 1920x1080 [SAR 1:1 DAR 16:9], 23.98 fps, 23.98 tbr, 1k tbn (default)
      Metadata:
        HANDLER_NAME    : VideoHandler
        VENDOR_ID       : [0][0][0][0]
        ENCODER         : Lavc61.19.100 libx265
        BPS             : 784114
        DURATION        : 00:24:06.528708333
        NUMBER_OF_FRAMES: 34682
        NUMBER_OF_BYTES : 141780439
        _STATISTICS_WRITING_APP: mkvpropedit v94.0 ('Initiate') 64-bit
        _STATISTICS_WRITING_DATE_UTC: 2026-01-04 13:26:29
        _STATISTICS_TAGS: BPS DURATION NUMBER_OF_FRAMES NUMBER_OF_BYTES
  Stream #0:1: Audio: aac (LC), 48000 Hz, stereo, fltp (default)
      Metadata:
        HANDLER_NAME    : SoundHandler
        VENDOR_ID       : [0][0][0][0]
        ENCODER         : Lavc61.19.100 aac
        BPS             : 193194
        DURATION        : 00:24:06.784000000
        NUMBER_OF_FRAMES: 67819
        NUMBER_OF_BYTES : 34938755
        _STATISTICS_WRITING_APP: mkvpropedit v94.0 ('Initiate') 64-bit
        _STATISTICS_WRITING_DATE_UTC: 2026-01-04 13:26:29
        _STATISTICS_TAGS: BPS DURATION NUMBER_OF_FRAMES NUMBER_OF_BYTES
Input #1, mov,mp4,m4a,3gp,3g2,mj2, from 'F:\Convert\files\[DC] Make Heroine ga Oosugiru - 07_Telegram.mp4':
  Metadata:
    major_brand     : isom
    minor_version   : 512
    compatible_brands: isomiso2avc1mp41
    encoder         : Lavf60.16.100
  Duration: 00:24:06.74, start: 0.000000, bitrate: 3764 kb/s
  Stream #1:0[0x1](und): Video: h264 (High) (avc1 / 0x31637661), yuv420p(tv, bt709, progressive), 1920x1080 [SAR 1:1 DAR 16:9], 3616 kb/s, 23.98 fps, 23.98 tbr, 24k tbn (default)
      Metadata:
        handler_name    : VideoHandler
        vendor_id       : [0][0][0][0]
        encoder         : Lavc60.31.102 h264_qsv
  Stream #1:1[0x2](und): Audio: aac (HE-AACv2) (mp4a / 0x6134706D), 48000 Hz, stereo, fltp, 144 kb/s (default)
      Metadata:
        handler_name    : SoundHandler
        vendor_id       : [0][0][0][0]
Stream mapping:
  Stream #0:0 (hevc) -> fps:default
  Stream #1:0 (h264) -> fps:default
  ssim:default -> Stream #0:0 (wrapped_avframe)
  Stream #0:1 -> #0:1 (aac (native) -> pcm_s16le (native))
Output #0, null, to 'pipe:':
  Metadata:
    COMPATIBLE_BRANDS: isomiso2avc1mp41
    MAJOR_BRAND     : isom
    MINOR_VERSION   : 512
    encoder         : Lavf61.7.100
  Stream #0:0: Video: wrapped_avframe, yuv420p10le(tv, bt709, progressive), 1920x1080 [SAR 1:1 DAR 16:9], q=2-31, 200 kb/s, 23.98 fps, 23.98 tbn
      Metadata:
        encoder         : Lavc61.19.100 wrapped_avframe
  Stream #0:1: Audio: pcm_s16le, 48000 Hz, stereo, s16, 1536 kb/s (default)
      Metadata:
        HANDLER_NAME    : SoundHandler
        VENDOR_ID       : [0][0][0][0]
        _STATISTICS_TAGS: BPS DURATION NUMBER_OF_FRAMES NUMBER_OF_BYTES
        BPS             : 193194
        DURATION        : 00:24:06.784000000
        NUMBER_OF_FRAMES: 67819
        NUMBER_OF_BYTES : 34938755
        _STATISTICS_WRITING_APP: mkvpropedit v94.0 ('Initiate') 64-bit
        _STATISTICS_WRITING_DATE_UTC: 2026-01-04 13:26:29
        encoder         : Lavc61.19.100 pcm_s16le
frame=  192 fps=0.0 q=-0.0 size=N/A time=00:00:08.00 bitrate=N/A speed=15.7x    frame=  469 fps=455 q=-0.0 size=N/A time=00:00:19.56 bitrate=N/A speed=  19x    frame=  757 fps=492 q=-0.0 size=N/A time=00:00:31.57 bitrate=N/A speed=20.5x    frame=  960 fps=466 q=-0.0 size=N/A time=00:00:40.04 bitrate=N/A speed=19.4x    frame= 1139 fps=442 q=-0.0 size=N/A time=00:00:47.50 bitrate=N/A speed=18.4x    frame= 1317 fps=426 q=-0.0 size=N/A time=00:00:54.92 bitrate=N/A speed=17.8x    frame= 1508 fps=417 q=-0.0 size=N/A time=00:01:02.89 bitrate=N/A speed=17.4x    frame= 1667 fps=404 q=-0.0 size=N/A time=00:01:09.52 bitrate=N/A speed=16.9x    frame= 1858 fps=401 q=-0.0 size=N/A time=00:01:17.49 bitrate=N/A speed=16.7x    frame= 2049 fps=397 q=-0.0 size=N/A time=00:01:25.46 bitrate=N/A speed=16.6x    frame= 2181 fps=385 q=-0.0 size=N/A time=00:01:30.96 bitrate=N/A speed=  16x    frame= 2358 fps=382 q=-0.0 size=N/A time=00:01:38.34 bitrate=N/A speed=15.9x    frame= 2508 fps=374 q=-0.0 size=N/A time=00:01:44.60 bitrate=N/A speed=15.6x    frame= 2695 fps=373 q=-0.0 size=N/A time=00:01:52.40 bitrate=N/A speed=15.6x    frame= 2906 fps=375 q=-0.0 size=N/A time=00:02:01.20 bitrate=N/A speed=15.7x    frame= 3169 fps=384 q=-0.0 size=N/A time=00:02:12.17 bitrate=N/A speed=  16x    frame= 3457 fps=394 q=-0.0 size=N/A time=00:02:24.18 bitrate=N/A speed=16.4x    frame= 3744 fps=403 q=-0.0 size=N/A time=00:02:36.15 bitrate=N/A speed=16.8x    frame= 4033 fps=412 q=-0.0 size=N/A time=00:02:48.20 bitrate=N/A speed=17.2x    frame= 4329 fps=420 q=-0.0 size=N/A time=00:03:00.55 bitrate=N/A speed=17.5x    frame= 4606 fps=425 q=-0.0 size=N/A time=00:03:12.10 bitrate=N/A speed=17.7x    frame= 4905 fps=432 q=-0.0 size=N/A time=00:03:24.57 bitrate=N/A speed=  18x    frame= 5187 fps=437 q=-0.0 size=N/A time=00:03:36.34 bitrate=N/A speed=18.2x    frame= 5473 fps=442 q=-0.0 size=N/A time=00:03:48.26 bitrate=N/A speed=18.4x    frame= 5753 fps=446 q=-0.0 size=N/A time=00:03:59.94 bitrate=N/A speed=18.6x    frame= 6031 fps=449 q=-0.0 size=N/A time=00:04:11.54 bitrate=N/A speed=18.7x    frame= 6298 fps=452 q=-0.0 size=N/A time=00:04:22.67 bitrate=N/A speed=18.8x    frame= 6585 fps=456 q=-0.0 size=N/A time=00:04:34.64 bitrate=N/A speed=  19x    frame= 6873 fps=459 q=-0.0 size=N/A time=00:04:46.66 bitrate=N/A speed=19.2x    frame= 7142 fps=461 q=-0.0 size=N/A time=00:04:57.88 bitrate=N/A speed=19.2x    frame= 7414 fps=464 q=-0.0 size=N/A time=00:05:09.22 bitrate=N/A speed=19.3x    frame= 7656 fps=464 q=-0.0 size=N/A time=00:05:19.31 bitrate=N/A speed=19.3x    frame= 7920 fps=465 q=-0.0 size=N/A time=00:05:30.33 bitrate=N/A speed=19.4x    frame= 8195 fps=467 q=-0.0 size=N/A time=00:05:41.79 bitrate=N/A speed=19.5x    frame= 8466 fps=469 q=-0.0 size=N/A time=00:05:53.10 bitrate=N/A speed=19.6x    frame= 8739 fps=471 q=-0.0 size=N/A time=00:06:04.48 bitrate=N/A speed=19.6x    frame= 9021 fps=472 q=-0.0 size=N/A time=00:06:16.25 bitrate=N/A speed=19.7x    frame= 9295 fps=474 q=-0.0 size=N/A time=00:06:27.67 bitrate=N/A speed=19.8x    frame= 9563 fps=475 q=-0.0 size=N/A time=00:06:38.85 bitrate=N/A speed=19.8x    frame= 9844 fps=477 q=-0.0 size=N/A time=00:06:50.57 bitrate=N/A speed=19.9x    frame=10114 fps=478 q=-0.0 size=N/A time=00:07:01.83 bitrate=N/A speed=19.9x    frame=10385 fps=479 q=-0.0 size=N/A time=00:07:13.14 bitrate=N/A speed=  20x    frame=10651 fps=480 q=-0.0 size=N/A time=00:07:24.23 bitrate=N/A speed=  20x    frame=10915 fps=481 q=-0.0 size=N/A time=00:07:35.24 bitrate=N/A speed=  20x    frame=11159 fps=481 q=-0.0 size=N/A time=00:07:45.42 bitrate=N/A speed=  20x    frame=11415 fps=481 q=-0.0 size=N/A time=00:07:56.10 bitrate=N/A speed=20.1x    frame=11692 fps=482 q=-0.0 size=N/A time=00:08:07.65 bitrate=N/A speed=20.1x    frame=11957 fps=483 q=-0.0 size=N/A time=00:08:18.70 bitrate=N/A speed=20.1x    frame=12236 fps=484 q=-0.0 size=N/A time=00:08:30.34 bitrate=N/A speed=20.2x    frame=12512 fps=485 q=-0.0 size=N/A time=00:08:41.85 bitrate=N/A speed=20.2x    frame=12792 fps=486 q=-0.0 size=N/A time=00:08:53.53 bitrate=N/A speed=20.3x    frame=13067 fps=487 q=-0.0 size=N/A time=00:09:05.00 bitrate=N/A speed=20.3x    frame=13323 fps=487 q=-0.0 size=N/A time=00:09:15.68 bitrate=N/A speed=20.3x    frame=13579 fps=487 q=-0.0 size=N/A time=00:09:26.35 bitrate=N/A speed=20.3x    frame=13855 fps=488 q=-0.0 size=N/A time=00:09:37.86 bitrate=N/A speed=20.4x    frame=14083 fps=487 q=-0.0 size=N/A time=00:09:47.37 bitrate=N/A speed=20.3x    frame=14331 fps=487 q=-0.0 size=N/A time=00:09:57.72 bitrate=N/A speed=20.3x    frame=14587 fps=488 q=-0.0 size=N/A time=00:10:08.39 bitrate=N/A speed=20.3x    frame=14844 fps=488 q=-0.0 size=N/A time=00:10:19.11 bitrate=N/A speed=20.3x    frame=15080 fps=487 q=-0.0 size=N/A time=00:10:28.96 bitrate=N/A speed=20.3x    frame=15296 fps=486 q=-0.0 size=N/A time=00:10:37.97 bitrate=N/A speed=20.3x    frame=15577 fps=487 q=-0.0 size=N/A time=00:10:49.69 bitrate=N/A speed=20.3x    frame=15844 fps=488 q=-0.0 size=N/A time=00:11:00.82 bitrate=N/A speed=20.3x    frame=16121 fps=488 q=-0.0 size=N/A time=00:11:12.38 bitrate=N/A speed=20.4x    frame=16403 fps=489 q=-0.0 size=N/A time=00:11:24.14 bitrate=N/A speed=20.4x    frame=16679 fps=490 q=-0.0 size=N/A time=00:11:35.65 bitrate=N/A speed=20.4x    frame=16955 fps=491 q=-0.0 size=N/A time=00:11:47.16 bitrate=N/A speed=20.5x    frame=17236 fps=491 q=-0.0 size=N/A time=00:11:58.88 bitrate=N/A speed=20.5x    frame=17511 fps=492 q=-0.0 size=N/A time=00:12:10.35 bitrate=N/A speed=20.5x    frame=17759 fps=492 q=-0.0 size=N/A time=00:12:20.69 bitrate=N/A speed=20.5x    frame=18041 fps=493 q=-0.0 size=N/A time=00:12:32.46 bitrate=N/A speed=20.5x    frame=18278 fps=492 q=-0.0 size=N/A time=00:12:42.34 bitrate=N/A speed=20.5x    frame=18538 fps=492 q=-0.0 size=N/A time=00:12:53.18 bitrate=N/A speed=20.5x    frame=18814 fps=493 q=-0.0 size=N/A time=00:13:04.70 bitrate=N/A speed=20.6x    frame=19105 fps=494 q=-0.0 size=N/A time=00:13:16.83 bitrate=N/A speed=20.6x    frame=19395 fps=495 q=-0.0 size=N/A time=00:13:28.93 bitrate=N/A speed=20.6x    frame=19679 fps=495 q=-0.0 size=N/A time=00:13:40.77 bitrate=N/A speed=20.7x    frame=19964 fps=496 q=-0.0 size=N/A time=00:13:52.66 bitrate=N/A speed=20.7x    frame=20247 fps=497 q=-0.0 size=N/A time=00:14:04.46 bitrate=N/A speed=20.7x    frame=20504 fps=497 q=-0.0 size=N/A time=00:14:15.18 bitrate=N/A speed=20.7x    frame=20745 fps=496 q=-0.0 size=N/A time=00:14:25.23 bitrate=N/A speed=20.7x    frame=21031 fps=497 q=-0.0 size=N/A time=00:14:37.16 bitrate=N/A speed=20.7x    frame=21303 fps=498 q=-0.0 size=N/A time=00:14:48.51 bitrate=N/A speed=20.8x    frame=21590 fps=498 q=-0.0 size=N/A time=00:15:00.48 bitrate=N/A speed=20.8x    frame=21864 fps=499 q=-0.0 size=N/A time=00:15:11.91 bitrate=N/A speed=20.8x    frame=22152 fps=499 q=-0.0 size=N/A time=00:15:23.92 bitrate=N/A speed=20.8x    frame=22435 fps=500 q=-0.0 size=N/A time=00:15:35.72 bitrate=N/A speed=20.9x    frame=22722 fps=501 q=-0.0 size=N/A time=00:15:47.69 bitrate=N/A speed=20.9x    frame=22973 fps=500 q=-0.0 size=N/A time=00:15:58.16 bitrate=N/A speed=20.9x    frame=23251 fps=501 q=-0.0 size=N/A time=00:16:09.76 bitrate=N/A speed=20.9x    frame=23542 fps=502 q=-0.0 size=N/A time=00:16:21.89 bitrate=N/A speed=20.9x    frame=23835 fps=502 q=-0.0 size=N/A time=00:16:34.11 bitrate=N/A speed=20.9x    frame=24112 fps=503 q=-0.0 size=N/A time=00:16:45.67 bitrate=N/A speed=  21x    frame=24388 fps=503 q=-0.0 size=N/A time=00:16:57.18 bitrate=N/A speed=  21x    frame=24665 fps=503 q=-0.0 size=N/A time=00:17:08.73 bitrate=N/A speed=  21x    frame=24957 fps=504 q=-0.0 size=N/A time=00:17:20.91 bitrate=N/A speed=  21x    frame=25245 fps=505 q=-0.0 size=N/A time=00:17:32.92 bitrate=N/A speed=  21x    frame=25534 fps=505 q=-0.0 size=N/A time=00:17:44.98 bitrate=N/A speed=21.1x    frame=25807 fps=505 q=-0.0 size=N/A time=00:17:56.36 bitrate=N/A speed=21.1x    frame=26093 fps=506 q=-0.0 size=N/A time=00:18:08.29 bitrate=N/A speed=21.1x    frame=26371 fps=506 q=-0.0 size=N/A time=00:18:19.89 bitrate=N/A speed=21.1x    frame=26655 fps=507 q=-0.0 size=N/A time=00:18:31.73 bitrate=N/A speed=21.1x    frame=26927 fps=507 q=-0.0 size=N/A time=00:18:43.08 bitrate=N/A speed=21.1x    frame=27154 fps=506 q=-0.0 size=N/A time=00:18:52.54 bitrate=N/A speed=21.1x    frame=27408 fps=506 q=-0.0 size=N/A time=00:19:03.14 bitrate=N/A speed=21.1x    frame=27666 fps=506 q=-0.0 size=N/A time=00:19:13.90 bitrate=N/A speed=21.1x    frame=27930 fps=506 q=-0.0 size=N/A time=00:19:24.91 bitrate=N/A speed=21.1x    frame=28179 fps=506 q=-0.0 size=N/A time=00:19:35.29 bitrate=N/A speed=21.1x    frame=28436 fps=506 q=-0.0 size=N/A time=00:19:46.01 bitrate=N/A speed=21.1x    frame=28702 fps=506 q=-0.0 size=N/A time=00:19:57.11 bitrate=N/A speed=21.1x    frame=28911 fps=505 q=-0.0 size=N/A time=00:20:05.82 bitrate=N/A speed=21.1x    frame=29127 fps=504 q=-0.0 size=N/A time=00:20:14.83 bitrate=N/A speed=  21x    frame=29370 fps=504 q=-0.0 size=N/A time=00:20:24.97 bitrate=N/A speed=  21x    frame=29585 fps=503 q=-0.0 size=N/A time=00:20:33.94 bitrate=N/A speed=  21x    frame=29805 fps=502 q=-0.0 size=N/A time=00:20:43.11 bitrate=N/A speed=  21x    frame=30008 fps=501 q=-0.0 size=N/A time=00:20:51.58 bitrate=N/A speed=20.9x    frame=30241 fps=501 q=-0.0 size=N/A time=00:21:01.30 bitrate=N/A speed=20.9x    frame=30511 fps=501 q=-0.0 size=N/A time=00:21:12.56 bitrate=N/A speed=20.9x    frame=30781 fps=501 q=-0.0 size=N/A time=00:21:23.82 bitrate=N/A speed=20.9x    frame=31058 fps=502 q=-0.0 size=N/A time=00:21:35.37 bitrate=N/A speed=20.9x    frame=31317 fps=502 q=-0.0 size=N/A time=00:21:46.17 bitrate=N/A speed=20.9x    frame=31579 fps=502 q=-0.0 size=N/A time=00:21:57.10 bitrate=N/A speed=20.9x    frame=31825 fps=502 q=-0.0 size=N/A time=00:22:07.36 bitrate=N/A speed=20.9x    frame=32052 fps=501 q=-0.0 size=N/A time=00:22:16.83 bitrate=N/A speed=20.9x    frame=32332 fps=501 q=-0.0 size=N/A time=00:22:28.51 bitrate=N/A speed=20.9x    frame=32592 fps=501 q=-0.0 size=N/A time=00:22:39.35 bitrate=N/A speed=20.9x    frame=32760 fps=500 q=-0.0 size=N/A time=00:22:46.36 bitrate=N/A speed=20.9x    frame=32966 fps=499 q=-0.0 size=N/A time=00:22:54.95 bitrate=N/A speed=20.8x    frame=33198 fps=499 q=-0.0 size=N/A time=00:23:04.63 bitrate=N/A speed=20.8x    frame=33415 fps=498 q=-0.0 size=N/A time=00:23:13.68 bitrate=N/A speed=20.8x    frame=33598 fps=497 q=-0.0 size=N/A time=00:23:21.31 bitrate=N/A speed=20.7x    frame=33766 fps=496 q=-0.0 size=N/A time=00:23:28.32 bitrate=N/A speed=20.7x    frame=33910 fps=494 q=-0.0 size=N/A time=00:23:34.32 bitrate=N/A speed=20.6x    frame=34113 fps=493 q=-0.0 size=N/A time=00:23:42.79 bitrate=N/A speed=20.6x    frame=34290 fps=492 q=-0.0 size=N/A time=00:23:50.17 bitrate=N/A speed=20.5x    frame=34438 fps=491 q=-0.0 size=N/A time=00:23:56.35 bitrate=N/A speed=20.5x    frame=34656 fps=490 q=-0.0 size=N/A time=00:24:05.44 bitrate=N/A speed=20.4x    [Parsed_ssim_2 @ 0000012c63417500] SSIM Y:0.994162 (22.337198) U:0.993977 (22.201831) V:0.993585 (21.928175) All:0.994035 (22.243809)
[out#0/null @ 0000012c62f34900] video:14903KiB audio:271276KiB subtitle:0KiB other streams:0KiB global headers:0KiB muxing overhead: unknown
frame=34683 fps=490 q=-0.0 Lsize=N/A time=00:24:06.57 bitrate=N/A speed=20.4x    
